<svg width="60" height="60" viewBox="0 0 60 60" fill="none" xmlns="http://www.w3.org/2000/svg">
<path d="M9 26.25C9 20.0344 14.0344 15 20.25 15L21 15C22.6594 15 24 16.3406 24 18C24 19.6594 22.6594 21 21 21L20.25 21C17.3531 21 15 23.3531 15 26.25L15 27L21 27C24.3094 27 27 29.6906 27 33L27 39C27 42.3094 24.3094 45 21 45L15 45C11.6906 45 9 42.3094 9 39L9 26.25ZM33 26.25C33 20.0344 38.0344 15 44.25 15L45 15C46.6594 15 48 16.3406 48 18C48 19.6594 46.6594 21 45 21L44.25 21C41.3531 21 39 23.3531 39 26.25L39 27L45 27C48.3094 27 51 29.6906 51 33L51 39C51 42.3094 48.3094 45 45 45L39 45C35.6906 45 33 42.3094 33 39L33 26.25Z" fill="black"/>
</svg>
