<svg width="60" height="60" viewBox="0 0 60 60" fill="none" xmlns="http://www.w3.org/2000/svg">
<path d="M51 33.75C51 39.9656 45.9656 45 39.75 45H39C37.3406 45 36 43.6594 36 42C36 40.3406 37.3406 39 39 39H39.75C42.6469 39 45 36.6469 45 33.75V33H39C35.6906 33 33 30.3094 33 27V21C33 17.6906 35.6906 15 39 15H45C48.3094 15 51 17.6906 51 21V33.75ZM27 33.75C27 39.9656 21.9656 45 15.75 45H15C13.3406 45 12 43.6594 12 42C12 40.3406 13.3406 39 15 39H15.75C18.6469 39 21 36.6469 21 33.75V33H15C11.6906 33 9 30.3094 9 27V21C9 17.6906 11.6906 15 15 15H21C24.3094 15 27 17.6906 27 21V33.75Z" fill="black"/>
</svg>
