<svg width="24" height="24" viewBox="0 0 24 24" fill="none" xmlns="http://www.w3.org/2000/svg">
<path d="M12 21C16.9706 21 21 16.9706 21 12C21 7.02944 16.9706 3 12 3C7.02944 3 3 7.02944 3 12C3 16.9706 7.02944 21 12 21Z" stroke="white" stroke-width="2" stroke-linecap="round" stroke-linejoin="round"/>
<path d="M12 13.1998C12.6628 13.1998 13.2 12.6625 13.2 11.9998C13.2 11.3371 12.6628 10.7998 12 10.7998C11.3373 10.7998 10.8 11.3371 10.8 11.9998C10.8 12.6625 11.3373 13.1998 12 13.1998Z" fill="white"/>
<path d="M12 12V7" stroke="white" stroke-width="2" stroke-linecap="round" stroke-linejoin="round"/>
<path d="M12 12H16" stroke="white" stroke-width="2" stroke-linecap="round" stroke-linejoin="round"/>
</svg>
